<svg 
 xmlns="http://www.w3.org/2000/svg"
 xmlns:xlink="http://www.w3.org/1999/xlink"
 width="16" height="16" viewBox="0 0 16 16">
<path fill-rule="evenodd"  fill="rgb(0, 0, 0)"
 d="M15.361,16.000 L0.650,16.000 C0.291,16.000 -0.000,15.709 -0.000,15.350 L-0.000,0.650 C-0.000,0.291 0.291,-0.000 0.650,-0.000 L15.361,-0.000 C15.720,-0.000 16.011,0.291 16.011,0.650 L16.011,15.350 C16.011,15.709 15.720,16.000 15.361,16.000 ZM15.190,6.134 C15.030,5.868 14.741,5.735 14.323,5.735 C14.055,5.735 13.842,5.817 13.685,5.979 C13.527,6.141 13.449,6.330 13.449,6.544 C13.449,6.758 13.498,6.954 13.596,7.132 C13.694,7.309 13.836,7.398 14.022,7.398 C14.052,7.398 14.091,7.396 14.138,7.391 L14.300,7.360 C14.424,7.339 14.499,7.300 14.525,7.244 C14.525,7.533 14.494,7.862 14.432,8.234 C14.200,9.559 13.784,10.663 13.186,11.544 C12.742,12.205 12.275,12.535 11.784,12.535 C11.423,12.535 11.243,12.359 11.243,12.009 C11.243,11.880 11.271,11.689 11.328,11.436 L12.466,6.052 L10.182,6.052 L9.106,11.134 C8.817,12.068 8.394,12.535 7.837,12.535 C7.522,12.535 7.365,12.302 7.365,11.838 C7.365,11.704 7.380,11.570 7.411,11.436 L8.549,6.052 L6.265,6.052 L5.190,11.134 C5.107,11.526 5.066,11.872 5.066,12.171 C5.066,12.836 5.228,13.318 5.553,13.617 C5.884,13.917 6.286,14.066 6.761,14.066 C7.674,14.066 8.425,13.623 9.013,12.736 C9.199,13.623 9.812,14.066 10.852,14.066 C11.892,14.066 12.783,13.654 13.526,12.828 C14.150,12.132 14.636,11.204 14.981,10.044 C15.136,9.528 15.250,9.016 15.322,8.508 C15.394,8.001 15.430,7.544 15.430,7.139 C15.430,6.734 15.350,6.399 15.190,6.134 Z"/>
</svg>